<mxfile host="Electron" modified="2025-04-06T23:35:38.027Z" agent="Mozilla/5.0 (Windows NT 10.0; Win64; x64) AppleWebKit/537.36 (KHTML, like Gecko) draw.io/24.4.0 Chrome/120.0.6099.109 Electron/28.1.0 Safari/537.36" etag="3-5GQKDkG6araxwqxjTt" version="24.4.0" type="device">
  <diagram name="Página-1" id="0oSqD82fregMh6XW0h80">
    <mxGraphModel dx="714" dy="418" grid="1" gridSize="10" guides="1" tooltips="1" connect="1" arrows="1" fold="1" page="1" pageScale="1" pageWidth="827" pageHeight="1169" math="0" shadow="0">
      <root>
        <mxCell id="0" />
        <mxCell id="1" parent="0" />
        <mxCell id="rCCGXVO-MSDknm2pcp_x-1" value="" style="shape=image;verticalLabelPosition=bottom;labelBackgroundColor=default;verticalAlign=top;aspect=fixed;imageAspect=0;image=https://static.vecteezy.com/system/resources/previews/019/879/202/non_2x/sack-of-money-on-transparent-background-free-png.png;" parent="1" vertex="1">
          <mxGeometry x="446.62" y="50" width="115.38" height="70" as="geometry" />
        </mxCell>
        <mxCell id="rCCGXVO-MSDknm2pcp_x-10" value="&lt;b&gt;&lt;font style=&quot;font-size: 39px;&quot; face=&quot;Garamond&quot;&gt;Bot da Grana&lt;/font&gt;&lt;/b&gt;" style="text;html=1;align=center;verticalAlign=middle;resizable=0;points=[];autosize=1;strokeColor=none;fillColor=none;" parent="1" vertex="1">
          <mxGeometry x="231.51" y="60" width="240" height="60" as="geometry" />
        </mxCell>
        <mxCell id="rCCGXVO-MSDknm2pcp_x-19" style="edgeStyle=orthogonalEdgeStyle;rounded=0;orthogonalLoop=1;jettySize=auto;html=1;exitX=1;exitY=0.5;exitDx=0;exitDy=0;entryX=0;entryY=0.5;entryDx=0;entryDy=0;" parent="1" source="rCCGXVO-MSDknm2pcp_x-11" target="rCCGXVO-MSDknm2pcp_x-12" edge="1">
          <mxGeometry relative="1" as="geometry" />
        </mxCell>
        <mxCell id="rCCGXVO-MSDknm2pcp_x-11" value="&lt;b&gt;&amp;nbsp;Usuário (WhatsApp)&amp;nbsp;&lt;/b&gt;" style="rounded=1;whiteSpace=wrap;html=1;" parent="1" vertex="1">
          <mxGeometry x="90" y="160" width="141.51" height="50" as="geometry" />
        </mxCell>
        <mxCell id="rCCGXVO-MSDknm2pcp_x-2" value="" style="shape=image;verticalLabelPosition=bottom;labelBackgroundColor=default;verticalAlign=top;aspect=fixed;imageAspect=0;image=https://png.pngtree.com/png-vector/20221018/ourmid/pngtree-whatsapp-mobile-software-icon-png-image_6315991.png;" parent="1" vertex="1">
          <mxGeometry x="220" y="128" width="42" height="42" as="geometry" />
        </mxCell>
        <mxCell id="rCCGXVO-MSDknm2pcp_x-20" style="edgeStyle=orthogonalEdgeStyle;rounded=0;orthogonalLoop=1;jettySize=auto;html=1;exitX=1;exitY=0.5;exitDx=0;exitDy=0;entryX=0;entryY=0.5;entryDx=0;entryDy=0;" parent="1" source="rCCGXVO-MSDknm2pcp_x-12" target="rCCGXVO-MSDknm2pcp_x-13" edge="1">
          <mxGeometry relative="1" as="geometry" />
        </mxCell>
        <mxCell id="rCCGXVO-MSDknm2pcp_x-12" value="&lt;b&gt;WhatsApp Cloud&lt;/b&gt;" style="rounded=1;whiteSpace=wrap;html=1;" parent="1" vertex="1">
          <mxGeometry x="320" y="170" width="130" height="30" as="geometry" />
        </mxCell>
        <mxCell id="rCCGXVO-MSDknm2pcp_x-21" style="edgeStyle=orthogonalEdgeStyle;rounded=0;orthogonalLoop=1;jettySize=auto;html=1;exitX=0.5;exitY=1;exitDx=0;exitDy=0;entryX=0.5;entryY=0;entryDx=0;entryDy=0;" parent="1" source="rCCGXVO-MSDknm2pcp_x-13" target="rCCGXVO-MSDknm2pcp_x-14" edge="1">
          <mxGeometry relative="1" as="geometry" />
        </mxCell>
        <mxCell id="rCCGXVO-MSDknm2pcp_x-13" value="&lt;b&gt;Webhook&lt;/b&gt;" style="rounded=1;whiteSpace=wrap;html=1;" parent="1" vertex="1">
          <mxGeometry x="560" y="170" width="90" height="30" as="geometry" />
        </mxCell>
        <mxCell id="rCCGXVO-MSDknm2pcp_x-22" style="edgeStyle=orthogonalEdgeStyle;rounded=0;orthogonalLoop=1;jettySize=auto;html=1;exitX=0;exitY=0.5;exitDx=0;exitDy=0;entryX=1;entryY=0.5;entryDx=0;entryDy=0;" parent="1" source="rCCGXVO-MSDknm2pcp_x-14" target="rCCGXVO-MSDknm2pcp_x-15" edge="1">
          <mxGeometry relative="1" as="geometry" />
        </mxCell>
        <mxCell id="rCCGXVO-MSDknm2pcp_x-14" value="&lt;b&gt;Parser&lt;/b&gt;" style="rounded=1;whiteSpace=wrap;html=1;" parent="1" vertex="1">
          <mxGeometry x="579.63" y="270" width="50" height="30" as="geometry" />
        </mxCell>
        <mxCell id="rCCGXVO-MSDknm2pcp_x-23" style="edgeStyle=orthogonalEdgeStyle;rounded=0;orthogonalLoop=1;jettySize=auto;html=1;exitX=0;exitY=0.5;exitDx=0;exitDy=0;entryX=1;entryY=0.5;entryDx=0;entryDy=0;" parent="1" source="rCCGXVO-MSDknm2pcp_x-15" target="rCCGXVO-MSDknm2pcp_x-16" edge="1">
          <mxGeometry relative="1" as="geometry" />
        </mxCell>
        <mxCell id="rCCGXVO-MSDknm2pcp_x-27" style="edgeStyle=orthogonalEdgeStyle;rounded=0;orthogonalLoop=1;jettySize=auto;html=1;exitX=0.75;exitY=1;exitDx=0;exitDy=0;entryX=0.75;entryY=0;entryDx=0;entryDy=0;" parent="1" source="rCCGXVO-MSDknm2pcp_x-15" target="rCCGXVO-MSDknm2pcp_x-24" edge="1">
          <mxGeometry relative="1" as="geometry" />
        </mxCell>
        <mxCell id="rCCGXVO-MSDknm2pcp_x-15" value="&lt;b&gt;Backend&lt;/b&gt;" style="rounded=1;whiteSpace=wrap;html=1;" parent="1" vertex="1">
          <mxGeometry x="320" y="260" width="130" height="50" as="geometry" />
        </mxCell>
        <mxCell id="rCCGXVO-MSDknm2pcp_x-29" style="edgeStyle=orthogonalEdgeStyle;rounded=0;orthogonalLoop=1;jettySize=auto;html=1;exitX=0.5;exitY=0;exitDx=0;exitDy=0;entryX=0.5;entryY=1;entryDx=0;entryDy=0;" parent="1" source="rCCGXVO-MSDknm2pcp_x-16" target="rCCGXVO-MSDknm2pcp_x-11" edge="1">
          <mxGeometry relative="1" as="geometry" />
        </mxCell>
        <mxCell id="rCCGXVO-MSDknm2pcp_x-16" value="" style="rounded=1;whiteSpace=wrap;html=1;" parent="1" vertex="1">
          <mxGeometry x="96.50999999999999" y="260" width="130" height="50" as="geometry" />
        </mxCell>
        <mxCell id="rCCGXVO-MSDknm2pcp_x-37" style="edgeStyle=orthogonalEdgeStyle;rounded=0;orthogonalLoop=1;jettySize=auto;html=1;exitX=0.25;exitY=0;exitDx=0;exitDy=0;entryX=0.25;entryY=1;entryDx=0;entryDy=0;" parent="1" source="rCCGXVO-MSDknm2pcp_x-24" target="rCCGXVO-MSDknm2pcp_x-15" edge="1">
          <mxGeometry relative="1" as="geometry" />
        </mxCell>
        <mxCell id="rCCGXVO-MSDknm2pcp_x-24" value="&lt;b&gt;Banco de Dados&lt;/b&gt;" style="rounded=1;whiteSpace=wrap;html=1;" parent="1" vertex="1">
          <mxGeometry x="320" y="360" width="130" height="50" as="geometry" />
        </mxCell>
        <mxCell id="rCCGXVO-MSDknm2pcp_x-30" value="" style="shape=image;verticalLabelPosition=bottom;labelBackgroundColor=default;verticalAlign=top;aspect=fixed;imageAspect=0;image=https://cdn-icons-png.flaticon.com/512/6033/6033716.png;" parent="1" vertex="1">
          <mxGeometry x="429.57" y="145" width="42" height="42" as="geometry" />
        </mxCell>
        <mxCell id="rCCGXVO-MSDknm2pcp_x-31" value="" style="shape=image;verticalLabelPosition=bottom;labelBackgroundColor=default;verticalAlign=top;aspect=fixed;imageAspect=0;image=https://images.tpointtech.com/tutorial/regex/images/regex-tutorial.png;" parent="1" vertex="1">
          <mxGeometry x="617" y="240" width="40" height="40" as="geometry" />
        </mxCell>
        <mxCell id="rCCGXVO-MSDknm2pcp_x-3" value="" style="shape=image;verticalLabelPosition=bottom;labelBackgroundColor=default;verticalAlign=top;aspect=fixed;imageAspect=0;image=https://fastapi.tiangolo.com/img/logo-margin/logo-teal.png;" parent="1" vertex="1">
          <mxGeometry x="562" y="148" width="83.26" height="30" as="geometry" />
        </mxCell>
        <mxCell id="rCCGXVO-MSDknm2pcp_x-35" value="" style="shape=image;verticalLabelPosition=bottom;labelBackgroundColor=default;verticalAlign=top;aspect=fixed;imageAspect=0;image=https://logospng.org/download/google-gemini/google-gemini-1024.png;" parent="1" vertex="1">
          <mxGeometry x="577.63" y="284" width="54" height="54" as="geometry" />
        </mxCell>
        <mxCell id="rCCGXVO-MSDknm2pcp_x-36" value="" style="shape=image;verticalLabelPosition=bottom;labelBackgroundColor=default;verticalAlign=top;aspect=fixed;imageAspect=0;image=https://raw.githubusercontent.com/msiemens/tinydb/master/artwork/logo.png;" parent="1" vertex="1">
          <mxGeometry x="348.7" y="410" width="72.61" height="20" as="geometry" />
        </mxCell>
        <mxCell id="rCCGXVO-MSDknm2pcp_x-38" value="" style="shape=image;verticalLabelPosition=bottom;labelBackgroundColor=default;verticalAlign=top;aspect=fixed;imageAspect=0;image=https://upload.wikimedia.org/wikipedia/commons/thumb/c/c3/Python-logo-notext.svg/1869px-Python-logo-notext.svg.png;" parent="1" vertex="1">
          <mxGeometry x="410" y="232.5" width="50.14" height="55" as="geometry" />
        </mxCell>
        <mxCell id="rCCGXVO-MSDknm2pcp_x-5" value="" style="shape=image;verticalLabelPosition=bottom;labelBackgroundColor=default;verticalAlign=top;aspect=fixed;imageAspect=0;image=https://logospng.org/download/google-gemini/google-gemini-1024.png;" parent="1" vertex="1">
          <mxGeometry x="110" y="230" width="111.51" height="111.51" as="geometry" />
        </mxCell>
        <mxCell id="rCCGXVO-MSDknm2pcp_x-39" value="&lt;b&gt;&lt;font face=&quot;Times New Roman&quot; style=&quot;font-size: 10px;&quot;&gt;heyoo&lt;/font&gt;&lt;/b&gt;" style="text;html=1;align=center;verticalAlign=middle;whiteSpace=wrap;rounded=0;" parent="1" vertex="1">
          <mxGeometry x="150" y="220" width="60" height="30" as="geometry" />
        </mxCell>
        <mxCell id="5XXt5MDWgIk0jmC9dSv1-1" value="&lt;font face=&quot;Times New Roman&quot;&gt;&lt;b&gt;Ngrok&lt;/b&gt;&lt;/font&gt;" style="text;html=1;align=center;verticalAlign=middle;resizable=0;points=[];autosize=1;strokeColor=none;fillColor=none;" vertex="1" parent="1">
          <mxGeometry x="471.51" y="178" width="60" height="30" as="geometry" />
        </mxCell>
      </root>
    </mxGraphModel>
  </diagram>
</mxfile>
